<svg width="170" height="57" viewBox="0 0 170 57" fill="none" xmlns="http://www.w3.org/2000/svg">
<path d="M133.145 44.0925C132.505 43.5565 131.53 43.2885 130.217 43.2885C129.617 43.2885 128.918 43.3328 128.125 43.4238C127.568 43.4863 126.975 43.619 126.765 43.6684C126.518 43.7282 126.294 44.1081 126.25 44.5556C126.201 45.0421 126.279 45.4766 126.533 45.474C126.57 45.474 126.632 45.4584 126.643 45.4558C127.654 45.1644 128.829 44.9901 129.773 44.9901C130.548 44.9901 131.096 45.1176 131.421 45.3726C131.746 45.6276 131.907 46.0178 131.907 46.5434V47.9119C130.99 47.5659 130.137 47.3942 129.347 47.3942C128.205 47.3942 127.321 47.6361 126.695 48.1201C126.065 48.604 125.751 49.2961 125.751 50.1937V50.5267C125.751 51.0731 125.865 51.5414 126.094 51.9317C126.323 52.322 126.643 52.6264 127.059 52.8397C127.472 53.0531 127.927 53.2092 128.421 53.308C128.915 53.4043 129.469 53.4537 130.085 53.4537C130.782 53.4537 131.497 53.3965 132.23 53.282C132.568 53.23 133.207 53.0921 133.226 53.0869C133.746 52.9672 134.11 52.5197 134.104 52.0696V46.546C134.104 45.448 133.785 44.6285 133.145 44.0925ZM131.907 51.9161C131.291 52.0748 130.74 52.1554 130.249 52.1554C128.785 52.1554 128.052 51.6091 128.052 50.5163V50.4226C128.052 49.9309 128.218 49.5536 128.556 49.2857C128.892 49.0203 129.383 48.8876 130.033 48.8876C130.875 48.8876 131.502 49.0151 131.91 49.2701V51.9135L131.907 51.9161Z" fill="#939598"/>
<path d="M169.035 44.0925C168.396 43.5565 167.421 43.2885 166.108 43.2885C165.507 43.2885 164.808 43.3328 164.015 43.4238C163.458 43.4863 162.865 43.619 162.655 43.6684C162.408 43.7282 162.184 44.1081 162.14 44.5556C162.091 45.0421 162.169 45.4766 162.423 45.474C162.46 45.474 162.522 45.4584 162.533 45.4558C163.544 45.1644 164.719 44.9901 165.663 44.9901C166.438 44.9901 166.986 45.1176 167.311 45.3726C167.636 45.6276 167.798 46.0178 167.798 46.5434V47.9119C166.88 47.5659 166.027 47.3942 165.237 47.3942C164.095 47.3942 163.211 47.6361 162.585 48.1201C161.955 48.604 161.641 49.2961 161.641 50.1937V50.5267C161.641 51.0731 161.755 51.5414 161.984 51.9317C162.213 52.322 162.533 52.6264 162.949 52.8397C163.362 53.0531 163.817 53.2092 164.311 53.308C164.805 53.4043 165.359 53.4537 165.975 53.4537C166.672 53.4537 167.387 53.3965 168.12 53.282C168.458 53.23 169.098 53.0921 169.116 53.0869C169.636 52.9672 170 52.5197 169.995 52.0696V46.546C169.995 45.448 169.675 44.6285 169.035 44.0925ZM167.798 51.9161C167.181 52.0748 166.63 52.1554 166.139 52.1554C164.675 52.1554 163.942 51.6091 163.942 50.5163V50.4226C163.942 49.9309 164.108 49.5536 164.446 49.2857C164.782 49.0203 165.273 48.8876 165.923 48.8876C166.765 48.8876 167.392 49.0151 167.8 49.2701V51.9135L167.798 51.9161Z" fill="#939598"/>
<path d="M159.296 52.9568V46.9935C159.296 45.8097 158.981 44.886 158.349 44.2278C157.718 43.5669 156.748 43.2365 155.443 43.2365C154.403 43.2365 153.329 43.4629 152.214 43.9182C151.569 43.4629 150.661 43.2365 149.494 43.2365C148.771 43.2365 148.012 43.3354 147.219 43.5357C146.564 43.7022 146.127 43.8375 145.667 44.0665C145.155 44.3189 145.183 44.8496 145.183 44.8496V53.0062C145.183 53.2612 145.672 53.4693 146.278 53.4693C146.884 53.4693 147.372 53.2638 147.372 53.0062V45.4845C147.586 45.3752 147.885 45.2737 148.269 45.1827C148.654 45.089 148.997 45.0422 149.299 45.0422C149.926 45.0422 150.388 45.1722 150.687 45.4324C150.986 45.6952 151.137 46.0595 151.137 46.5278V52.8579C151.137 52.8579 151.137 52.9516 151.137 53.0062C151.137 53.2612 151.626 53.4693 152.232 53.4693C152.838 53.4693 153.326 53.2638 153.326 53.0062C153.326 52.9672 153.326 52.8787 153.326 52.8787V45.651C153.547 45.5001 153.846 45.3596 154.231 45.2347C154.613 45.1072 154.954 45.0422 155.248 45.0422C155.874 45.0422 156.342 45.2321 156.649 45.6093C156.956 45.9866 157.109 46.5148 157.109 47.1886V52.8839C157.109 52.8839 157.109 52.9542 157.109 53.0062C157.109 53.2612 157.598 53.4693 158.204 53.4693C158.81 53.4693 159.298 53.2638 159.298 53.0062C159.298 52.9828 159.298 52.9542 159.298 52.9542L159.296 52.9568Z" fill="#939598"/>
<path d="M119.534 43.4941C118.674 43.4941 117.857 43.7048 117.101 44.1237C117.101 44.1237 117.101 40.6477 117.101 40.3876C117.101 40.1274 116.529 39.8828 115.863 39.8828C115.197 39.8828 114.625 40.0962 114.625 40.3798V52.9308C114.625 53.2196 115.179 53.4537 115.863 53.4537C116.547 53.4537 117.101 53.2222 117.101 52.9334C117.101 52.9308 117.101 45.6562 117.101 45.6562C117.709 45.3414 118.317 45.1957 118.884 45.1957C119.828 45.1957 120.288 45.7004 120.288 46.6865V52.9256C120.288 52.9256 120.288 52.936 120.288 52.9386C120.288 53.2274 120.839 53.4563 121.523 53.4563C122.207 53.4563 122.761 53.2222 122.761 52.9334V46.853C122.761 45.8461 122.488 45.0266 121.963 44.4177C121.437 43.8089 120.621 43.4941 119.529 43.4941H119.534Z" fill="#939598"/>
<path d="M143.29 44.4281C143.29 43.8766 143.163 43.4473 142.841 43.4187C142.518 43.39 142.23 43.364 141.884 43.364C140.945 43.364 139.858 43.7205 139.367 44.3709V43.861C139.367 43.6918 139.271 43.5357 139 43.5357C138.998 43.5357 138.291 43.5357 138.285 43.5357C137.693 43.5357 137.212 43.978 137.201 44.5244V52.6056C137.201 52.6056 137.201 53.0401 137.201 53.0713C137.201 53.3887 137.817 53.5136 138.285 53.5136C138.67 53.5136 139.37 53.4147 139.37 53.0791C139.37 53.0245 139.37 52.7669 139.37 52.7669V46.6136C139.609 46.1427 140.196 45.5885 140.94 45.3674C141.548 45.1879 142.282 45.1983 142.724 45.331C143.051 45.4272 143.296 45.0005 143.296 44.4307L143.29 44.4281Z" fill="#939598"/>
<path d="M111.428 46.2416C111.256 45.7108 111.022 45.2711 110.726 44.9251C110.429 44.5764 110.068 44.2902 109.639 44.0639C109.212 43.8375 108.757 43.6762 108.274 43.5773C107.793 43.4811 107.268 43.4316 106.703 43.4316C106.082 43.4316 105.432 43.4889 104.751 43.5982C104.402 43.6554 103.781 43.8011 103.781 43.8011C103.321 43.926 103.009 44.2772 103.009 44.7143V56.5707C103.009 56.8569 103.557 57 104.083 57C104.66 57 105.154 56.8309 105.154 56.5707C105.154 56.3677 105.154 56.1284 105.154 56.1232V53.0635C106.025 53.2586 106.818 53.3575 107.533 53.3575C108.893 53.3575 109.925 52.9152 110.627 52.0358C111.331 51.1538 111.682 49.9049 111.682 48.284V48.0498C111.682 47.3734 111.597 46.7723 111.425 46.2416H111.428ZM109.446 48.2788C109.446 50.5657 108.596 51.7079 106.891 51.7079C106.248 51.7079 105.671 51.6169 105.156 51.4347V51.4243C105.156 51.4243 105.156 51.4243 105.154 51.4243V45.3257C105.661 45.1722 106.17 45.0916 106.683 45.0916C107.104 45.0916 107.481 45.154 107.816 45.2763C108.152 45.3986 108.445 45.5807 108.695 45.8253C109.194 46.3118 109.444 47.0637 109.444 48.0784V48.2814L109.446 48.2788Z" fill="#939598"/>
<path d="M112.052 17.6922C111.412 16.9428 110.635 16.3262 109.714 15.8371C108.794 15.3505 107.816 15.0019 106.779 14.7912C105.741 14.5804 104.616 14.4763 103.396 14.4763C102.06 14.4763 100.656 14.596 99.1894 14.8354C98.4407 14.9577 97.1043 15.2699 97.1043 15.2699C96.1163 15.5405 95.4429 16.295 95.4429 17.2342V42.763C95.4429 43.377 96.6259 43.6892 97.7543 43.6892C98.9997 43.6892 100.063 43.3224 100.063 42.763C100.063 42.3259 100.063 41.8081 100.063 41.7977V35.2126C101.938 35.6341 103.643 35.8448 105.182 35.8448C108.11 35.8448 110.333 34.8952 111.846 32.9985C113.362 31.1018 114.119 28.4089 114.119 24.9199V24.4178C114.119 22.9634 113.934 21.6677 113.565 20.5255C113.196 19.3833 112.691 18.4389 112.054 17.6896L112.052 17.6922ZM109.277 24.8991C109.277 29.8139 107.447 32.2726 103.786 32.2726C102.406 32.2726 101.163 32.0749 100.06 31.6846V18.5534C101.15 18.2203 102.247 18.0512 103.349 18.0512C105.151 18.0512 106.589 18.5742 107.665 19.6227C108.739 20.6686 109.277 22.2817 109.277 24.4646V24.8991Z" fill="#0062AA"/>
<path d="M151.353 16.6306C151.353 15.4624 151.082 14.557 150.399 14.492C149.715 14.4269 149.104 14.3749 148.376 14.3749C146.39 14.3749 144.089 15.1268 143.049 16.5057V15.426C143.046 15.0696 142.846 14.7391 142.274 14.7391C142.266 14.7391 140.8 14.7391 140.8 14.7391C140.787 14.7391 140.774 14.7391 140.761 14.7391C139.505 14.7391 138.488 15.6732 138.47 16.831V33.9299C138.47 33.9481 138.47 34.8484 138.47 34.9186C138.47 35.5873 139.77 35.8526 140.763 35.8526C141.58 35.8526 143.054 35.6445 143.054 34.9342C143.054 34.8197 143.054 34.2708 143.054 34.2708V21.2488C143.558 20.2523 144.804 19.0789 146.374 18.6106C147.661 18.2281 149.213 18.2541 150.149 18.5325C150.841 18.7381 151.358 17.8353 151.358 16.6254L151.353 16.6306Z" fill="#0062AA"/>
<path d="M69.2557 7.29541C67.8205 7.29541 66.8637 7.7117 66.8585 8.28409C66.8585 8.28409 66.8585 8.70298 66.8585 8.70818V19.235H55.5122V8.28409C55.5122 7.64145 54.3812 7.29541 53.1124 7.29541C51.9372 7.29541 50.7126 7.60762 50.7126 8.28409V34.9108C50.7126 35.5847 51.9736 35.8891 53.1124 35.8891C54.2512 35.8891 55.5122 35.5873 55.5122 34.9056V23.018H66.8585V34.903C66.8585 35.5534 68.0337 35.8891 69.2583 35.8891C70.4829 35.8891 71.6581 35.5456 71.6581 34.9056V8.28409C71.6581 7.67007 70.6051 7.29541 69.2583 7.29541H69.2557Z" fill="#0062AA"/>
<path d="M167.969 16.0869C166.62 14.9577 164.558 14.3905 161.787 14.3905C160.515 14.3905 159.044 14.4842 157.364 14.6767C156.189 14.8094 154.936 15.0878 154.494 15.1945C153.971 15.3193 153.5 16.1233 153.407 17.0677C153.303 18.0955 153.467 19.0113 154.005 19.0087C154.08 19.0087 154.215 18.9749 154.236 18.9697C156.371 18.353 158.854 17.9836 160.845 17.9836C162.478 17.9836 163.638 18.2516 164.324 18.7927C165.01 19.3339 165.354 20.1587 165.354 21.267V24.1576C163.414 23.4265 161.612 23.0623 159.948 23.0623C157.541 23.0623 155.674 23.5748 154.345 24.5973C153.017 25.6172 152.354 27.0794 152.354 28.9787V29.6786C152.354 30.8338 152.596 31.8225 153.077 32.6473C153.56 33.472 154.236 34.1121 155.112 34.5648C155.989 35.0175 156.948 35.3479 157.991 35.5509C159.036 35.7538 160.206 35.8579 161.506 35.8579C162.977 35.8579 164.488 35.7382 166.035 35.4962C166.747 35.3843 168.102 35.0955 168.141 35.0851C169.238 34.8328 170.01 33.8857 170 32.9361V21.2696C170 18.9488 169.324 17.2212 167.974 16.0895L167.969 16.0869ZM165.354 32.6134C164.054 32.9491 162.886 33.1182 161.852 33.1182C158.758 33.1182 157.211 31.963 157.211 29.6552V29.4601C157.211 28.422 157.564 27.6232 158.274 27.0612C158.981 26.4992 160.021 26.2182 161.391 26.2182C163.172 26.2182 164.493 26.4888 165.354 27.0274V32.6134Z" fill="#0062AA"/>
<path d="M90.4977 14.4217C89.4031 14.4217 88.2227 14.7678 88.1837 15.4859C88.1733 15.655 88.1525 16.0713 88.1525 16.0713C87.8223 22.3936 86.5275 27.5009 84.1563 31.5727C84.1563 31.5727 82.3103 28.7081 80.6983 22.9712C79.7597 19.6279 79.4893 15.4728 79.4893 15.4702C79.4893 14.5934 78.2284 14.4217 77.1156 14.4217C76.1666 14.4217 74.6976 14.7469 74.721 15.4833C74.7496 16.3809 75.2072 19.503 75.6648 21.4361C76.1328 23.4083 76.5904 25.1177 77.0974 26.5539C77.6044 27.9901 78.166 29.356 78.7873 30.6517C79.4061 31.95 79.9365 32.9673 80.3785 33.7036C80.8205 34.4399 81.2339 35.0669 81.6187 35.5873C80.5085 37.2186 78.2544 39.9843 76.3096 42.2374C76.3096 42.2374 76.1458 42.4118 76.1588 42.6121C76.1926 43.2079 77.3054 43.6945 78.7197 43.6945C79.8845 43.6945 80.8413 43.3172 81.4133 42.6147C82.8303 40.8065 83.6909 39.6851 84.4345 38.6834C85.2717 37.5594 86.3273 35.9827 87.5961 33.956C88.8675 31.9292 89.8087 30.1339 90.4223 28.5703C91.0359 27.004 91.5845 25.1359 92.0681 22.966C92.5517 20.7961 92.7935 18.5768 92.7935 16.3132V15.5067C92.7935 14.7365 91.7665 14.4269 90.5003 14.4269L90.4977 14.4217Z" fill="#0062AA"/>
<path d="M133.135 16.9663C131.528 15.2491 129.183 14.3905 126.094 14.3905C123.005 14.3905 120.689 15.2725 119.139 17.0313C117.589 18.7927 116.815 21.3763 116.815 24.7794V25.4351C116.815 29.075 117.73 31.7236 119.563 33.381C121.393 35.0409 124.154 35.8683 127.846 35.8683C128.457 35.8683 129.068 35.8501 129.679 35.8006C130.22 35.759 130.761 35.694 131.297 35.5951C131.772 35.5066 132.243 35.3947 132.703 35.2412C133.117 35.1059 133.52 34.9394 133.904 34.7339C134.084 34.6376 134.261 34.5336 134.43 34.4191C134.731 34.2161 134.991 33.9898 135.165 33.6646C135.337 33.3445 135.425 32.9829 135.483 32.629C135.633 31.6586 135.436 30.8234 135.025 30.7584C134.95 30.7453 134.879 30.748 134.783 30.7948C132.862 31.8043 131.005 32.27 128.486 32.27C126.13 32.27 124.435 31.8485 123.403 31.0081C122.371 30.1678 121.796 28.6743 121.679 26.5252H134.367C135.004 26.5252 135.545 26.0179 135.545 25.3805V24.8601C135.545 21.3113 134.742 18.6757 133.135 16.9611V16.9663ZM121.635 23.3771C121.752 21.5584 122.191 20.2055 122.953 19.3183C123.715 18.4311 124.849 17.9862 126.357 17.9862C129.3 17.9862 130.813 19.784 130.901 23.3771H121.635Z" fill="#0062AA"/>
<path d="M37.4969 17.8951C36.5635 17.8951 35.6223 18.2672 34.8657 18.954C34.1559 19.5993 33.6515 20.4345 33.2797 21.3243C34.9801 22.6304 36.4335 24.2669 37.3591 26.2052C37.6477 26.8088 37.8921 27.4333 38.0897 28.0733C38.2171 28.4922 38.3263 28.9189 38.4095 29.3508C39.4001 28.3153 40.2581 27.1471 40.8457 25.8462C41.8571 23.6086 41.7375 20.7311 39.9253 18.915C39.2285 18.2177 38.3679 17.8925 37.4969 17.8925M22.8876 0C21.3692 0 19.8846 0.327825 18.7198 1.26707C15.7766 3.6399 16.2602 8.23206 14.8614 11.4349C13.8968 13.6438 12.446 15.6107 10.5065 17.0547C9.97346 17.4502 9.43007 17.8327 8.86587 18.1813C8.33807 18.5065 7.79208 18.8057 7.22268 19.0555C6.66889 19.2975 6.09429 19.4926 5.50669 19.6279C4.8931 19.7684 4.2665 19.8412 3.63991 19.8569C3.57231 19.8569 3.50471 19.8569 3.43711 19.8569C2.90671 19.8569 2.37891 19.8126 1.85372 19.7424C1.67952 19.719 1.50532 19.6929 1.32852 19.6929C1.26872 19.6929 1.20632 19.6955 1.14652 19.7033C0.761724 19.7528 0.384727 19.9479 0.192328 20.294C0.127328 20.4084 0.0857287 20.5359 0.0701288 20.666C0.0597289 20.7441 0.0571289 20.7753 0.0571289 20.7753C0.330127 23.0727 1.77572 25.0552 3.71271 26.3119C4.4511 24.1758 6.24509 22.6226 8.13008 21.4544C10.4103 20.039 12.9166 18.9983 15.5218 18.3556C17.5238 17.8613 19.5908 17.5881 21.6422 17.5881C22.4066 17.5881 23.171 17.6271 23.9276 17.7052C24.7752 16.6775 25.6774 15.694 26.6914 14.8302C27.0138 14.557 27.3466 14.2942 27.6924 14.0497C29.2835 12.9205 31.2309 12.0281 33.2121 12.0255C33.2147 12.0255 33.2199 12.0255 33.2225 12.0255C35.2635 12.0255 37.2447 12.6603 38.8697 13.904C40.7885 15.3714 42.0833 17.5777 42.5305 19.9427C43.2324 23.6633 42.1665 27.7611 39.8187 30.7193C39.4417 31.1928 39.0335 31.6404 38.6201 32.0801C38.5915 32.7045 38.5057 33.3263 38.3627 33.9325C38.2093 34.5778 37.9909 35.2074 37.7101 35.8084C37.5801 36.0842 37.4397 36.3522 37.2837 36.615C37.3201 36.602 37.3565 36.589 37.3903 36.5733C37.7491 36.4198 38.0871 36.1831 38.3939 35.9437C38.5785 35.8006 38.7995 35.6003 38.9373 35.4051C38.9399 35.3999 38.9451 35.3947 38.9477 35.3895C41.1031 32.3298 42.9335 27.7273 43.1856 23.6919C43.521 18.3816 41.9793 12.741 38.7007 8.51045C38.2743 7.95887 37.8271 7.42551 37.3513 6.91556C34.1637 3.4838 29.8711 1.07454 25.2588 0.231559C24.4866 0.0910626 23.6832 0 22.885 0" fill="#00BFDF"/>
<path d="M38.4123 29.3534C37.5959 30.2094 36.6807 30.9327 35.7499 31.6612C35.5653 31.8069 35.3781 31.9526 35.1961 32.1035C34.3667 32.7773 33.5529 33.4954 32.9575 34.3957C32.6689 34.8328 32.4375 35.3349 32.3101 35.8449C32.1359 36.5265 32.1385 37.3149 32.5363 37.9185C32.9497 38.5455 33.5659 38.7875 34.2315 38.7875C34.7489 38.7875 35.2923 38.6418 35.7889 38.4154C35.8435 38.366 35.8955 38.327 35.9475 38.2775C36.4493 37.8118 36.8731 37.2914 37.2267 36.706C37.2449 36.6748 37.2631 36.6436 37.2813 36.6124C37.1357 36.6618 36.9823 36.693 36.8341 36.693C36.7093 36.693 36.5897 36.6722 36.4753 36.628C36.1217 36.4875 35.9397 36.131 35.9605 35.7616C35.9735 35.5118 36.0645 35.2751 36.1737 35.0487C36.6261 34.1069 37.3723 33.3679 38.0977 32.6342C38.2745 32.4547 38.4435 32.2622 38.6177 32.0775C38.6177 32.0462 38.6203 32.0176 38.6229 31.9864C38.6489 31.3307 38.6125 30.6725 38.5241 30.0194C38.4929 29.7957 38.4565 29.5745 38.4123 29.3508M23.9252 17.7026C23.478 18.2463 23.0438 18.8005 22.6174 19.3573C20.1552 22.5679 17.1756 25.6849 13.2834 27.0794C11.9444 27.566 10.5119 27.8339 9.08707 27.8339C7.66228 27.8339 6.31289 27.579 5.03889 27.0248C4.5761 26.8244 4.1315 26.5851 3.7103 26.3119C3.6505 26.4836 3.5985 26.6579 3.5543 26.8375C2.57671 30.7063 4.7451 34.8952 7.36328 37.6375C9.33667 39.7033 11.8171 41.2436 14.482 42.2843C16.2318 42.8671 18.1402 43.1897 20.033 43.1897C24.3906 43.1897 28.6597 41.4855 30.7033 37.3383C31.6705 35.3765 31.9461 33.1728 32.0605 31.0133C32.1749 28.8356 32.1229 26.6397 32.4505 24.4776C32.5831 23.6008 32.7807 22.7318 33.0719 21.8941C33.1369 21.7041 33.2097 21.5168 33.2877 21.3295C32.7287 20.9002 32.1437 20.5073 31.5405 20.1509C29.1823 18.7563 26.5902 17.981 23.9304 17.7052" fill="#0062AA"/>
<path d="M38.9347 35.4051C38.7943 35.6003 38.576 35.798 38.3914 35.9437C38.0846 36.1831 37.7466 36.4172 37.3878 36.5733C37.354 36.589 37.3176 36.602 37.2812 36.615C37.263 36.6462 37.2448 36.6774 37.2266 36.7086C36.873 37.294 36.4492 37.8144 35.9474 38.2801C35.8928 38.3295 35.8408 38.3686 35.7888 38.418C35.8252 38.4024 35.859 38.3868 35.8928 38.3686C36.0982 38.2671 36.5714 38.0121 37.042 37.5906C37.0862 37.5516 37.1278 37.5126 37.172 37.471C37.2214 37.4241 37.2708 37.3773 37.315 37.3331C37.861 36.8023 38.407 36.1492 38.9322 35.4051M0.0129999 21.4439C0.00779995 21.5558 0.00519997 21.6677 0.00259998 21.7796C0.00259998 21.8914 0 22.0033 0 22.1152C0 22.2271 0 22.3416 0.00519997 22.4534C0.00519997 22.5679 0.0103999 22.6798 0.0155999 22.7943C0.0207999 22.9087 0.0259998 23.0232 0.0337998 23.1377C0.0415997 23.2496 0.0467997 23.3641 0.0571996 23.4785C0.176799 24.9459 0.452397 26.4003 0.870994 27.8157C1.46899 29.8217 2.36858 31.7886 3.53338 33.6047C3.92077 34.2031 4.33677 34.7833 4.77877 35.3401C6.45056 37.4449 8.51754 39.2272 10.8315 40.5905C10.9381 40.6503 11.0421 40.7076 11.1513 40.7648C11.6739 41.0432 12.1939 41.332 12.7295 41.587C12.8881 41.6598 13.0441 41.7301 13.2027 41.8003C13.6161 41.9773 14.0451 42.1386 14.4819 42.2843C11.8195 41.2436 9.33654 39.7059 7.36315 37.6375C4.74497 34.8952 2.57658 30.7063 3.55418 26.8374C3.59838 26.6579 3.65298 26.4836 3.71018 26.3119C3.71018 26.3119 3.66078 26.2781 3.65558 26.2755C3.63738 26.2624 3.61918 26.2494 3.59838 26.239C3.56198 26.213 3.52298 26.1896 3.48658 26.1636C3.41378 26.1115 3.34098 26.0595 3.26818 26.0075C3.19538 25.9554 3.12518 25.9008 3.05498 25.8462C2.98478 25.7915 2.91458 25.7343 2.84698 25.677C2.77938 25.6198 2.71178 25.5626 2.64418 25.5027C2.57658 25.4429 2.51158 25.383 2.44658 25.3232C2.38158 25.2634 2.31659 25.2009 2.25419 25.1385C2.19179 25.076 2.12939 25.011 2.06959 24.9459C2.00979 24.8809 1.94999 24.8159 1.89019 24.7482C1.83039 24.6806 1.77319 24.6155 1.71859 24.5453C1.66139 24.4776 1.60679 24.4074 1.55219 24.3371C1.49759 24.2669 1.44559 24.1966 1.39359 24.1238C1.34159 24.0535 1.29219 23.9807 1.24279 23.9078C1.19339 23.835 1.14659 23.7595 1.09979 23.6867C1.05299 23.6138 1.00879 23.5358 0.964594 23.4603C0.920394 23.3849 0.878794 23.3068 0.837195 23.2288C0.795595 23.1507 0.756595 23.0727 0.717595 22.9946C0.678596 22.9165 0.642196 22.8359 0.605796 22.7552C0.569396 22.6746 0.535597 22.5939 0.504397 22.5133C0.473197 22.4326 0.439397 22.3494 0.410797 22.2661C0.382198 22.1828 0.353598 22.0996 0.327598 22.0163C0.301598 21.9331 0.275598 21.8472 0.252198 21.7614C0.228799 21.6755 0.207999 21.5896 0.187199 21.5038C0.166399 21.4179 0.148199 21.3295 0.132599 21.2436C0.116999 21.1551 0.101399 21.0667 0.0883994 20.9808C0.0779995 20.9132 0.0701995 20.8455 0.0623996 20.7779C0.0493997 20.908 0.0259998 21.3399 0.0233999 21.4517L0.0129999 21.4439ZM33.22 12.0229C33.22 12.0229 33.2122 12.0229 33.2096 12.0229C31.2258 12.0229 29.281 12.9179 27.6898 14.0471C27.344 14.2916 27.0112 14.5518 26.6888 14.8276C25.6748 15.6914 24.7726 16.6749 23.925 17.7026C26.5848 17.9784 29.177 18.7537 31.5352 20.1482C32.1384 20.5047 32.7234 20.8976 33.2824 21.3269C33.6516 20.437 34.1586 19.6019 34.8684 18.9566C35.625 18.2698 36.5662 17.8977 37.4996 17.8977C38.3706 17.8977 39.2337 18.2229 39.9279 18.9202C41.7427 20.7362 41.8597 23.6138 40.8483 25.8514C40.2607 27.1523 39.4027 28.3205 38.4122 29.356C38.4564 29.5771 38.4928 29.8009 38.524 30.0246C38.6124 30.6751 38.6488 31.3333 38.6228 31.9916C38.6228 32.0228 38.6227 32.0514 38.6175 32.0826C39.0309 31.6429 39.4417 31.1954 39.8161 30.7219C42.1639 27.7637 43.2299 23.6659 42.5279 19.9453C42.0807 17.5803 40.7859 15.374 38.8671 13.9066C37.2396 12.6629 35.2584 12.0281 33.22 12.0281" fill="#00396C"/>
</svg>
